<svg xmlns="http://www.w3.org/2000/svg" width="220" height="51.98" viewBox="0 0 220 51.98"><title>University of Brighton</title><path d="M75.366,73.715l-5.186,6.454,5.186,6.455L67.183,85.7,63.725,91.81,60.383,85.7l-8.3.922,5.186-6.455-5.186-6.454,8.3.922,3.343-5.993,3.458,5.993Zm-14.753,1.5-7.722-1.037,10.6,5.763Zm-2.766,4.956-4.725,5.878,10.373-5.878ZM69.6,112.325c0,3.573-1.959,5.3-5.763,5.3-3.919,0-5.878-1.729-5.878-5.3V104.6h3.919v6.915c0,1.268,0,2.882,1.959,2.882,1.844,0,1.844-1.614,1.844-2.882V104.6H69.6Zm-8.99-27.085,3.112,5.532V80.285ZM66.837,75.1l-3.112-5.417V79.824ZM69.6,80.169l4.841-5.993-10.6,5.993Zm-2.766,5.071,7.607.922L63.956,80.4Zm5.417,22.82h3.458v1.153a3.423,3.423,0,0,1,3-1.383,2.959,2.959,0,0,1,3.112,3.112v6.339H78.362v-4.84c0-1.037-.116-1.844-1.153-1.844-.576,0-1.383.345-1.383,1.844v4.84H72.254Zm15.905-1.037H84.7V104.6h3.458ZM84.7,108.061h3.458v9.22H84.7ZM97.034,117.4H92.885l-3.112-9.22h3.8l1.383,5.647,1.5-5.647h3.573Zm7.607-3.919a1.727,1.727,0,0,0,1.844,1.728,1.439,1.439,0,0,0,1.383-.576h3.342a4.715,4.715,0,0,1-4.725,2.882c-3,0-5.186-1.729-5.186-4.841a4.726,4.726,0,0,1,4.84-4.841c3.688,0,5.3,2.075,5.3,5.648Zm3.343-1.844a1.453,1.453,0,0,0-1.5-1.5,1.679,1.679,0,0,0-1.844,1.5Zm5.647-3.573h3.458v1.5a2.591,2.591,0,0,1,2.536-1.729c.346,0,.691.116,1.037.116v3.112a3.76,3.76,0,0,0-1.383-.23c-1.383,0-2.075.806-2.075,2.766v3.688H113.63Zm14.061,2.536a2.419,2.419,0,0,0-.461-.691,1.668,1.668,0,0,0-.806-.23c-.461,0-1.037.115-1.037.691a.5.5,0,0,0,.461.461c.576.23,1.844.345,3,.691,1.153.461,2.19,1.153,2.19,2.651,0,2.535-2.42,3.227-4.61,3.227s-4.61-.922-4.61-3.227h3.343a.87.87,0,0,0,.461.807,1.491,1.491,0,0,0,.922.23c.461,0,1.153-.115,1.153-.691s-.231-.692-1.96-.922c-2.651-.461-3.688-1.383-3.688-3,0-2.305,2.421-2.881,4.265-2.881,2.075,0,4.38.576,4.495,2.881Zm9.1-3.573h-3.458V104.6H136.8Zm-3.458,1.037H136.8v9.22h-3.458Zm10.488,0h1.844v2.19h-1.844v3.227c0,.806.23,1.152,1.037,1.152h.807v2.651c-.692,0-1.5.116-2.19.116-1.5,0-3.227-.231-3.227-2.766v-4.379h-1.5v-2.19h1.5v-2.766h3.573Zm10.927,8.644a7.193,7.193,0,0,1-1.153,2.536c-.922,1.152-2.3,1.152-3.688,1.152H148.3v-2.766h.807a3.22,3.22,0,0,0,1.153-.115.7.7,0,0,0,.345-.692,33.609,33.609,0,0,0-1.613-4.379l-1.5-4.265h3.688l1.5,5.3,1.5-5.3h3.688Zm14.291.807c-3.573,0-5.071-2.306-5.071-4.841s1.5-4.841,5.071-4.841a4.842,4.842,0,1,1,0,9.682Zm0-7.146c-1.383,0-1.613,1.268-1.613,2.305,0,.922.23,2.305,1.613,2.305,1.268,0,1.5-1.383,1.5-2.305C170.544,111.634,170.314,110.366,169.046,110.366Zm7.953-.115h-1.383v-2.19H177a3.231,3.231,0,0,1,.807-2.536c.691-.806,1.613-.922,3-.922.576,0,1.037.116,1.613.116v2.42a1.963,1.963,0,0,0-.806-.115c-.922,0-1.153.23-1.153,1.037H182.3v2.19h-1.729v7.03H177Zm12.217-5.648h6.916c3.342,0,4.034,1.844,4.034,3.227a2.457,2.457,0,0,1-1.5,2.421,3.263,3.263,0,0,1,2.19,3.227c0,2.536-2.19,3.8-4.5,3.8h-7.146Zm3.919,4.956h2.075c.806,0,1.267-.23,1.267-1.037,0-.691-.576-.922-1.267-.922h-2.075Zm0,4.725h2.3c.807,0,1.5-.23,1.5-1.268,0-.691-.461-1.152-1.383-1.152h-2.42Zm10.027-6.224h3.458v1.5a2.59,2.59,0,0,1,2.535-1.729c.345,0,.692.116,1.037.116v3.112a3.759,3.759,0,0,0-1.383-.23c-1.383,0-2.075.806-2.075,2.766v3.688h-3.573Zm12.217-1.037h-3.458V104.6h3.458Zm-3.458,1.037h3.458v9.22h-3.458Zm15.675,8.183c0,1.844-.461,4.38-4.84,4.38-2.19,0-4.5-.576-4.841-3.112h3.573c0,.115.115.23.115.345a1.326,1.326,0,0,0,1.037.691c1.152,0,1.383-1.383,1.383-2.074v-.922a2.854,2.854,0,0,1-2.42,1.267c-2.766,0-4.034-1.959-4.034-4.495,0-2.42,1.383-4.379,4.034-4.379a2.587,2.587,0,0,1,2.42,1.383v-1.152H227.6Zm-4.84-1.613c1.267,0,1.383-1.268,1.383-2.305s-.461-1.844-1.5-1.844-1.5.922-1.5,1.844C221.141,113.363,221.487,114.631,222.755,114.631Zm7.491-10.027h3.573V109.1a3.424,3.424,0,0,1,2.881-1.268,2.959,2.959,0,0,1,3.112,3.112v6.339h-3.458v-4.84c0-1.037-.116-1.844-1.152-1.844-.576,0-1.383.345-1.383,1.844v4.84h-3.573Zm16.482,3.343h1.844v2.19h-1.844v3.227c0,.807.23,1.153,1.037,1.153h.806v2.65c-.691,0-1.5.116-2.189.116-1.5,0-3.227-.23-3.227-2.766v-4.38h-1.5v-2.19h1.5V105.18h3.573Zm8.414,9.566c-3.573,0-5.072-2.306-5.072-4.841s1.5-4.841,5.072-4.841a4.842,4.842,0,1,1,0,9.682Zm0-7.146c-1.383,0-1.614,1.268-1.614,2.305,0,.922.23,2.305,1.614,2.305,1.267,0,1.5-1.383,1.5-2.305C256.64,111.634,256.409,110.366,255.142,110.366Zm7.376-2.305h3.458v1.153a3.424,3.424,0,0,1,3-1.383,2.959,2.959,0,0,1,3.112,3.112v6.339h-3.458v-4.84c0-1.037-.116-1.844-1.153-1.844-.576,0-1.383.345-1.383,1.844v4.84h-3.573Z" transform="translate(-52.084 -68.644)"/></svg>
